<svg width="1014" height="120" viewBox="0 0 1014 120" fill="none" xmlns="http://www.w3.org/2000/svg">
<path d="M0.48459 100.335V19.965L20.1496 0.299992H78.6316L97.9546 19.623V37.92H74.6986V28.173L66.6616 20.136H32.4616L23.7406 28.857V91.443L32.4616 100.164H66.6616L74.6986 92.127V82.38H97.9546V100.677L78.6316 120H20.1496L0.48459 100.335ZM112.536 100.335V19.965L132.201 0.299992H193.761L213.426 19.965V100.335L193.761 120H132.201L112.536 100.335ZM181.449 100.164L190.17 91.443V28.857L181.449 20.136H144.513L135.792 28.857V91.443L144.513 100.164H181.449ZM233.98 0.299992H254.842L308.194 81.525H308.536V0.299992H330.937V120H310.075L256.723 38.946H256.381V120H233.98V0.299992ZM380.401 19.965H344.662V0.299992H439.396V19.965H403.657V120H380.401V19.965ZM471.226 0.299992H492.43L536.206 120H512.608L502.861 93.495H460.795L451.048 120H427.45L471.226 0.299992ZM497.731 74.343L481.828 28.857H481.486L466.096 74.343H497.731ZM544.044 100.335V19.965L563.709 0.299992H622.191L641.514 19.623V37.92H618.258V28.173L610.221 20.136H576.021L567.3 28.857V91.443L576.021 100.164H610.221L618.258 92.127V82.38H641.514V100.677L622.191 120H563.709L544.044 100.335ZM684.16 19.965H648.421V0.299992H743.155V19.965H707.416V120H684.16V19.965ZM803.423 99.48V0.299992H826.679V91.443L835.4 100.164H868.916L877.637 91.443V0.299992H900.893V99.48L880.373 120H823.943L803.423 99.48ZM920.592 101.532V84.432H943.506V94.521L949.149 100.164H984.546L990.36 94.35V74.514L984.717 68.871H939.402L920.934 50.403V18.768L939.402 0.299992H993.438L1011.91 18.768V36.039H988.992V25.779L983.349 20.136H949.491L943.848 25.779V43.392L949.491 49.035H994.806L1013.27 67.503V101.19L994.464 120H939.06L920.592 101.532Z" fill="#F3F3F3"/>
</svg>
