<svg width="259" height="162" viewBox="0 0 259 162" fill="none" xmlns="http://www.w3.org/2000/svg">
<g clip-path="url(#clip0_47_492)">
<path d="M64.6031 67.6825V62.2617H79.2489L89.4355 93.9501V67.6825H86.314V62.2617H98.981V67.6825H95.33V99.3709H84.4606L74.2741 67.6825V93.9501H77.507V99.3709H64.6031V93.9501H68.1566V67.6825H64.6031Z" fill="#F2B944"/>
<path d="M99.622 86.1467H105.572C105.851 87.9861 106.213 89.3657 106.701 90.3133C107.384 91.7346 108.29 92.7658 109.418 93.4208C110.547 94.0618 111.746 94.3962 113 94.3962C114.491 94.3962 115.759 93.9782 116.818 93.1142C117.877 92.2642 118.42 91.0797 118.42 89.5747C118.42 88.6411 118.184 87.8468 117.752 87.1779C117.306 86.509 116.79 86.0073 116.219 85.6311C115.647 85.2688 114.992 84.9204 114.24 84.5859C113.529 84.2654 112.665 83.9031 111.606 83.499C110.547 83.1088 109.321 82.635 107.927 82.0776C105.349 81.0464 103.357 79.7644 101.991 78.2315C100.625 76.7126 99.9425 74.6781 99.9425 72.1558C99.9425 70.4836 100.249 68.9786 100.876 67.6548C101.503 66.331 102.325 65.244 103.371 64.3801C104.416 63.53 105.614 62.8751 106.952 62.4291C108.29 61.9832 109.683 61.7603 111.16 61.7603C114.714 61.7603 117.208 62.889 118.643 65.1604C118.713 65.2998 118.825 65.4809 118.95 65.676L119.061 62.4291H124.845V74.9289H118.908C118.797 73.8838 118.643 72.9362 118.42 72.1001C118.184 71.2501 117.71 70.4279 116.957 69.6336C116.442 68.9786 115.717 68.4491 114.811 68.045C113.919 67.6269 112.93 67.4318 111.857 67.4318C110.366 67.4318 109.195 67.822 108.373 68.6163C107.523 69.4106 107.119 70.3582 107.119 71.4451C107.119 72.5321 107.509 73.4657 108.318 74.1625C109.112 74.8453 110.171 75.4863 111.467 76.0716C112.08 76.3224 112.679 76.5593 113.264 76.7962C113.85 77.0192 114.56 77.284 115.41 77.6045C116.247 77.911 116.902 78.1479 117.306 78.3152C118.671 78.8726 119.939 79.4996 121.11 80.2243C122.28 80.9489 123.326 82.0498 124.245 83.4851C125.179 84.9343 125.639 86.7738 125.639 89.0034C125.639 91.1215 125.151 93.0027 124.19 94.6332C123.228 96.2775 121.876 97.5456 120.121 98.4514C118.365 99.3572 116.358 99.817 114.115 99.817C112.484 99.817 111.091 99.608 109.934 99.2039C108.791 98.7997 107.927 98.3678 107.398 97.9218C106.854 97.4759 106.241 96.8767 105.558 96.0963L105.461 99.3711H99.6081V86.1606L99.622 86.1467Z" fill="#F2B944"/>
<path d="M128.37 67.6549V62.248H156.268V74.7478H150.248V67.8639H139.295V77.1586H148.897V82.6351H139.295V93.9365H150.248V85.9935H156.268V99.3572H128.37V93.9365H132.063V67.6549H128.37Z" fill="#F2B944"/>
<path d="M4.54285 86.1467H10.4931C10.7718 87.9861 11.1341 89.3657 11.6219 90.3133C12.3047 91.7346 13.2105 92.7658 14.3392 93.4208C15.468 94.0618 16.6664 94.3962 17.9205 94.3962C19.4116 94.3962 20.6797 93.9782 21.7388 93.1142C22.7978 92.2642 23.3413 91.0797 23.3413 89.5747C23.3413 88.6411 23.1044 87.8468 22.6724 87.1779C22.2265 86.509 21.7109 86.0073 21.1396 85.6311C20.5682 85.2688 19.9133 84.9204 19.1608 84.5859C18.4501 84.2654 17.5861 83.9031 16.527 83.499C15.468 83.1088 14.2417 82.635 12.8482 82.0776C10.2702 81.0464 8.27745 79.7644 6.91181 78.2315C5.54617 76.7126 4.86335 74.6781 4.86335 72.1558C4.86335 70.4836 5.16993 68.9786 5.79701 67.6548C6.42408 66.331 7.24626 65.244 8.29139 64.3801C9.33652 63.53 10.5349 62.8751 11.8727 62.4291C13.2105 61.9832 14.604 61.7603 16.0811 61.7603C19.6346 61.7603 22.1289 62.889 23.5643 65.1604C23.6339 65.2998 23.7454 65.4809 23.8708 65.676L23.9823 62.4291H29.7654V74.9289H23.829C23.7175 73.8838 23.5643 72.9362 23.3413 72.1001C23.1044 71.2501 22.6306 70.4279 21.8781 69.6336C21.3625 68.9786 20.6379 68.4491 19.7321 68.045C18.8403 67.6269 17.8509 67.4318 16.7779 67.4318C15.2868 67.4318 14.1163 67.822 13.2941 68.6163C12.444 69.4106 12.0399 70.3582 12.0399 71.4451C12.0399 72.5321 12.4301 73.4657 13.2383 74.1625C14.0326 74.8453 15.0917 75.4863 16.3877 76.0716C17.0008 76.3224 17.6 76.5593 18.1853 76.7962C18.7706 77.0192 19.4813 77.284 20.3313 77.6045C21.1674 77.911 21.8224 78.1479 22.2265 78.3152C23.5921 78.8726 24.8602 79.4996 26.0308 80.2243C27.2013 80.9489 28.2465 82.0498 29.1662 83.4851C30.0998 84.9343 30.5597 86.7738 30.5597 89.0034C30.5597 91.1215 30.0719 93.0027 29.1104 94.6332C28.1489 96.2775 26.7972 97.5456 25.0414 98.4514C23.2856 99.3572 21.2789 99.817 19.0353 99.817C17.4049 99.817 16.0114 99.608 14.8548 99.2039C13.7121 98.7997 12.8482 98.3678 12.3186 97.9218C11.7752 97.4759 11.162 96.8767 10.4792 96.0963L10.3817 99.3711H4.54285V86.1606V86.1467Z" fill="#F2B944"/>
<path d="M33.3049 67.6549V62.248H61.203V74.7478H55.183V67.8639H44.23V77.1586H53.8313V82.6351H44.23V93.9365H55.183V85.9935H61.203V99.3572H33.3049V93.9365H36.9977V67.6549H33.3049Z" fill="#F2B944"/>
<path d="M228.243 62.2339H258.51V74.7476H252.615V67.794H246.958V93.9223H250.358V99.3431H236.297V93.9223H239.781V67.794H234.138V74.7476H228.243V62.2339Z" fill="#D93A34"/>
<path d="M225.902 93.9223L224.926 87.8048C224.606 86.0211 224.341 84.7391 224.09 83.9308C223.867 83.1226 223.449 82.4258 222.878 81.8127C222.307 81.1996 221.484 80.7536 220.425 80.5307L219.283 80.3774C219.77 80.2798 220.119 80.2102 220.314 80.1405C221.303 79.9315 222.251 79.4995 223.171 78.8445C224.076 78.1896 224.843 77.242 225.442 76.0296C226.041 74.8173 226.362 73.2984 226.362 71.4868C226.362 68.3514 225.4 65.9824 223.491 64.3799C222.418 63.4602 221.22 62.8888 219.924 62.638C218.628 62.4011 217.081 62.2618 215.283 62.2339H197.279V67.6546H200.819V93.9223H197.279V99.3431H211.702V93.9223H208.051V67.6546H213.082C214.587 67.6825 215.729 67.8079 216.496 68.0309C217.276 68.2538 217.903 68.7973 218.405 69.6892C218.92 70.4835 219.171 71.4729 219.171 72.6852C219.171 74.8033 218.572 76.155 217.388 76.7403C216.565 77.1444 215.66 77.3953 214.656 77.5207C214.461 77.5486 210.1 83.1365 210.1 83.1365H212.455C213.583 83.1783 214.447 83.2759 215.033 83.457C215.632 83.6243 216.161 84.0702 216.635 84.7809C217.011 85.3522 217.374 86.467 217.694 88.1392L219.701 99.3431H229.093V93.9223H225.888H225.902Z" fill="#D93A34"/>
<path d="M192.792 93.9223L184.64 67.4456H187.357V62.2339H169.925V67.4456H172.628L163.835 93.9223H161.55V99.3431H173.311V93.9223H170.329L172.154 88.2925L173.785 88.3483L181.463 82.7324H173.743L178.021 67.6546L183.428 87.6097L185.253 93.9223H182.09V99.3431H195.133V93.9223H192.792Z" fill="#D93A34"/>
<path d="M49.8041 131.074C23.7454 131.074 2.36897 111.328 0.0975457 86.147H0C2.32716 128.189 37.5551 161.578 80.6564 161.578C63.6137 161.578 49.8041 147.921 49.8041 131.074Z" fill="#D93A34"/>
<path d="M161.271 74.7479C158.595 33.0262 123.535 0 80.6564 0C97.699 0 111.509 13.6564 111.509 30.5039C137.33 30.5039 158.568 49.8876 161.173 74.7479H161.257H161.271Z" fill="#D93A34"/>
</g>
<defs>
<clipPath id="clip0_47_492">
<rect width="258.51" height="161.577" fill="white"/>
</clipPath>
</defs>
</svg>
