<svg width="186" height="116" viewBox="0 0 186 116" fill="none" xmlns="http://www.w3.org/2000/svg">
<g clip-path="url(#clip0_1_30)">
<path d="M61.94 48.57H64.18V67.42L56.87 44.68H46.36V48.57H48.91V67.42H46.36V71.31H55.63V67.42H53.31V48.57L60.61 71.31H68.41V48.57H71.03V44.68H61.94V48.57Z" fill="white"/>
<path d="M86.92 57.58C86.08 57.06 85.17 56.61 84.19 56.21C83.89 56.09 83.43 55.92 82.83 55.7C82.21 55.47 81.71 55.28 81.29 55.12C80.87 54.95 80.44 54.78 80 54.6C79.06 54.18 78.31 53.72 77.74 53.23C77.16 52.73 76.88 52.08 76.88 51.28C76.88 50.48 77.18 49.82 77.78 49.25C78.38 48.68 79.22 48.4 80.29 48.4C81.05 48.4 81.77 48.55 82.41 48.84C83.06 49.13 83.57 49.52 83.95 49.98C84.48 50.56 84.82 51.14 85 51.75C85.16 52.36 85.27 53.03 85.35 53.78H89.61V44.81H85.46L85.38 47.14C85.28 47 85.21 46.87 85.16 46.77C84.13 45.14 82.35 44.33 79.79 44.33C78.73 44.33 77.73 44.49 76.77 44.81C75.81 45.13 74.95 45.6 74.2 46.21C73.44 46.83 72.85 47.6 72.41 48.56C71.96 49.51 71.74 50.59 71.74 51.79C71.74 53.6 72.23 55.06 73.21 56.15C74.19 57.24 75.62 58.16 77.47 58.91C78.47 59.31 79.35 59.65 80.11 59.93C80.86 60.21 81.49 60.48 82 60.71C82.54 60.95 83.01 61.2 83.42 61.46C83.83 61.73 84.2 62.1 84.52 62.57C84.84 63.05 85 63.62 85 64.29C85 65.37 84.61 66.22 83.85 66.83C83.09 67.44 82.18 67.75 81.11 67.75C80.21 67.75 79.35 67.51 78.54 67.05C77.73 66.58 77.08 65.84 76.59 64.82C76.24 64.14 75.98 63.15 75.78 61.83H71.51V71.31H75.71L75.78 68.96C76.27 69.52 76.71 69.95 77.1 70.27C77.48 70.59 78.09 70.9 78.92 71.19C79.74 71.49 80.75 71.63 81.92 71.63C83.54 71.63 84.98 71.31 86.23 70.65C87.49 70 88.47 69.09 89.15 67.91C89.85 66.74 90.19 65.38 90.19 63.87C90.19 62.27 89.86 60.95 89.19 59.91C88.53 58.88 87.78 58.09 86.94 57.57L86.92 57.58Z" fill="white"/>
<path d="M92.12 48.55H94.77V67.41H92.12V71.3H112.15V61.71H107.83V67.41H99.97V59.3H106.86V55.37H99.97V48.7H107.83V53.64H112.15V44.67H92.12V48.55Z" fill="white"/>
<path d="M7.54001 68.95C8.03001 69.51 8.47001 69.94 8.86001 70.26C9.24001 70.58 9.85001 70.89 10.68 71.18C11.5 71.48 12.51 71.62 13.68 71.62C15.3 71.62 16.74 71.3 17.99 70.64C19.25 69.99 20.23 69.08 20.91 67.9C21.61 66.73 21.95 65.37 21.95 63.86C21.95 62.26 21.62 60.94 20.95 59.9C20.29 58.87 19.54 58.08 18.7 57.56C17.86 57.04 16.95 56.59 15.97 56.19C15.67 56.07 15.21 55.9 14.61 55.68C13.99 55.45 13.49 55.26 13.07 55.1C12.65 54.93 12.22 54.76 11.78 54.58C10.84 54.16 10.09 53.7 9.52001 53.21C8.94001 52.71 8.66001 52.06 8.66001 51.26C8.66001 50.46 8.96001 49.8 9.56001 49.23C10.16 48.66 11 48.38 12.07 48.38C12.83 48.38 13.55 48.53 14.19 48.82C14.84 49.11 15.35 49.5 15.73 49.96C16.26 50.54 16.6 51.12 16.78 51.73C16.94 52.34 17.05 53.01 17.13 53.76H21.39V44.79H17.24L17.16 47.12C17.06 46.98 16.99 46.85 16.94 46.75C15.91 45.12 14.13 44.31 11.57 44.31C10.51 44.31 9.51001 44.47 8.55001 44.79C7.59001 45.11 6.73001 45.58 5.98001 46.19C5.22001 46.81 4.63001 47.58 4.19001 48.54C3.74001 49.49 3.52001 50.57 3.52001 51.77C3.52001 53.58 4.01001 55.04 4.99001 56.13C5.97001 57.22 7.40001 58.14 9.25001 58.89C10.25 59.29 11.13 59.63 11.89 59.91C12.64 60.19 13.27 60.46 13.78 60.69C14.32 60.93 14.79 61.18 15.2 61.44C15.61 61.71 15.98 62.08 16.3 62.55C16.62 63.03 16.78 63.6 16.78 64.27C16.78 65.35 16.39 66.2 15.63 66.81C14.87 67.42 13.96 67.73 12.89 67.73C11.99 67.73 11.13 67.49 10.32 67.03C9.51001 66.56 8.86001 65.82 8.37001 64.8C8.02001 64.12 7.76001 63.13 7.56001 61.81H3.26001V71.29H7.46001L7.53001 68.94L7.54001 68.95Z" fill="white"/>
<path d="M43.92 61.71H39.6V67.41H31.75V59.3H38.64V55.37H31.75V48.7H39.6V53.64H43.92V44.67H23.9V48.55H26.55V67.41H23.9V71.3H43.92V61.71Z" fill="white"/>
<path d="M163.79 44.66V53.64H168.02V48.65H172.06V67.4H169.57V71.29H179.66V67.4H177.22V48.65H181.28V53.64H185.51V44.66H163.79Z" fill="white"/>
<path d="M161.41 63.01C161.18 61.73 160.99 60.81 160.81 60.23C160.65 59.65 160.35 59.15 159.94 58.71C159.53 58.27 158.94 57.95 158.18 57.79L157.36 57.68C157.71 57.61 157.96 57.56 158.1 57.51C158.81 57.36 159.49 57.05 160.15 56.58C160.8 56.11 161.35 55.43 161.78 54.56C162.21 53.69 162.44 52.6 162.44 51.3C162.44 49.05 161.75 47.35 160.38 46.2C159.61 45.54 158.75 45.13 157.82 44.95C156.89 44.78 155.78 44.68 154.49 44.66H141.57V48.55H144.11V67.4H141.57V71.29H151.92V67.4H149.3V48.55H152.91C153.99 48.57 154.81 48.66 155.36 48.82C155.92 48.98 156.37 49.37 156.73 50.01C157.1 50.58 157.28 51.29 157.28 52.16C157.28 53.68 156.85 54.65 156 55.07C155.41 55.36 154.76 55.54 154.04 55.63C153.9 55.65 150.77 59.66 150.77 59.66H152.46C153.27 59.69 153.89 59.76 154.31 59.89C154.74 60.01 155.12 60.33 155.46 60.84C155.73 61.25 155.99 62.05 156.22 63.25L157.66 71.29H164.4V67.4H162.1L161.4 63.01H161.41Z" fill="white"/>
<path d="M132.5 48.4H134.45V44.66H121.94V48.4H123.88L117.57 67.4H115.93V71.29H124.37V67.4H122.23L123.54 63.36L124.71 63.4L130.22 59.37H124.68L127.75 48.55L131.63 62.87L132.94 67.4H130.67V71.29H140.03V67.4H138.36L132.5 48.4Z" fill="white"/>
<path d="M35.74 94.06C17.04 94.06 1.7 79.89 0.07 61.82H0C1.67 91.99 26.95 115.95 57.88 115.95C45.65 115.95 35.74 106.15 35.74 94.06Z" fill="white"/>
<path d="M57.88 0C70.11 0 80.02 9.8 80.02 21.89C98.55 21.89 113.79 35.8 115.66 53.64H115.72C113.81 23.7 88.65 0 57.88 0Z" fill="white"/>
</g>
<defs>
<clipPath id="clip0_1_30">
<rect width="185.51" height="115.95" fill="white"/>
</clipPath>
</defs>
</svg>
